<?xml version="1.0" encoding="UTF-8"?>
<svg xmlns="http://www.w3.org/2000/svg" xmlns:xlink="http://www.w3.org/1999/xlink" width="40px" height="40px" viewBox="0 0 40 40" version="1.1">
<g id="surface1">
<path style=" stroke:none;fill-rule:nonzero;fill:rgb(0%,0%,0%);fill-opacity:1;" d="M 16.992188 0.09375 C 16.78125 0.132812 16.3125 0.304688 15.953125 0.46875 C 15.109375 0.867188 14.21875 1.726562 13.84375 2.5 C 13.414062 3.382812 13.359375 3.75 13.359375 5.710938 C 13.359375 7.414062 13.367188 7.484375 13.539062 7.742188 C 13.789062 8.125 14.359375 8.390625 14.773438 8.320312 C 15.1875 8.25 15.671875 7.820312 15.78125 7.4375 C 15.820312 7.273438 15.859375 6.460938 15.859375 5.625 C 15.859375 4.1875 15.875 4.078125 16.046875 3.703125 C 16.148438 3.492188 16.375 3.1875 16.5625 3.023438 C 17.195312 2.484375 16.992188 2.5 23.078125 2.507812 L 28.554688 2.515625 L 26.859375 3.085938 C 24.671875 3.820312 24.1875 4.15625 23.640625 5.304688 L 23.398438 5.820312 L 23.375 19.15625 L 23.359375 32.5 L 20.484375 32.5 C 17.265625 32.5 17.15625 32.484375 16.5625 31.976562 C 16.375 31.8125 16.148438 31.507812 16.046875 31.296875 C 15.875 30.921875 15.859375 30.8125 15.859375 29.375 C 15.859375 28.539062 15.820312 27.726562 15.78125 27.5625 C 15.671875 27.179688 15.1875 26.75 14.773438 26.679688 C 14.359375 26.609375 13.789062 26.875 13.539062 27.257812 C 13.367188 27.515625 13.359375 27.585938 13.359375 29.289062 C 13.359375 31.25 13.414062 31.617188 13.84375 32.5 C 14.21875 33.273438 15.109375 34.132812 15.945312 34.523438 C 16.304688 34.695312 16.8125 34.867188 17.0625 34.914062 C 17.34375 34.96875 18.6875 35 20.445312 35 L 23.359375 35 L 23.359375 36.117188 C 23.359375 36.882812 23.398438 37.359375 23.476562 37.625 C 23.65625 38.242188 24.148438 38.9375 24.6875 39.328125 C 25.335938 39.804688 25.820312 39.960938 26.679688 39.960938 L 27.382812 39.960938 L 32.617188 38.210938 C 35.5 37.25 38.023438 36.375 38.234375 36.273438 C 38.6875 36.046875 39.265625 35.484375 39.554688 35 C 40.023438 34.1875 40 35.171875 40 18.320312 C 40 1.609375 40.023438 2.5625 39.570312 1.726562 C 39.3125 1.257812 38.679688 0.632812 38.21875 0.398438 C 37.414062 -0.015625 37.757812 0 27.1875 0.0078125 C 21.351562 0.015625 17.226562 0.046875 16.992188 0.09375 Z M 37.257812 2.765625 L 37.460938 2.96875 L 37.484375 18.226562 C 37.507812 32.359375 37.5 33.492188 37.375 33.726562 C 37.304688 33.867188 37.132812 34.023438 37 34.085938 C 36.867188 34.148438 34.507812 34.945312 31.757812 35.859375 C 26.335938 37.664062 26.515625 37.625 26.085938 37.1875 L 25.859375 36.96875 L 25.859375 6.335938 L 26.039062 6.132812 C 26.179688 5.96875 27.148438 5.625 31.328125 4.21875 C 36.875 2.359375 36.851562 2.367188 37.257812 2.765625 Z M 37.257812 2.765625 "/>
<path style=" stroke:none;fill-rule:nonzero;fill:rgb(0%,0%,0%);fill-opacity:1;" d="M 10.390625 10.085938 C 9.742188 10.34375 9.40625 11.195312 9.71875 11.78125 C 9.78125 11.898438 10.789062 12.9375 11.945312 14.101562 L 14.0625 16.210938 L 7.429688 16.25 C 0.882812 16.289062 0.789062 16.289062 0.578125 16.453125 C 0.164062 16.757812 0.0390625 17.007812 0.0390625 17.5 C 0.0390625 17.992188 0.164062 18.242188 0.578125 18.546875 C 0.789062 18.710938 0.882812 18.710938 7.429688 18.75 L 14.0625 18.789062 L 11.945312 20.898438 C 10.789062 22.054688 9.78125 23.101562 9.71875 23.21875 C 9.65625 23.335938 9.609375 23.585938 9.609375 23.773438 C 9.609375 24.65625 10.59375 25.257812 11.375 24.859375 C 11.554688 24.765625 13.046875 23.328125 14.9375 21.429688 C 17.734375 18.625 18.203125 18.117188 18.289062 17.828125 C 18.492188 17.132812 18.523438 17.171875 14.9375 13.570312 C 13.140625 11.773438 11.546875 10.234375 11.390625 10.148438 C 11.078125 9.984375 10.703125 9.960938 10.390625 10.085938 Z M 10.390625 10.085938 "/>
</g>
</svg>
